<svg xmlns="http://www.w3.org/2000/svg" id="svg" version="1.1" style="display: block;" viewBox="241.53 221.86 553.59 561.02"><path d="M0 0 C1.43601562 -0.00128906 2.87203125 -0.00257813 4.3515625 -0.00390625 C5.83398438 -0.00003906 7.31640625 0.00382813 8.84375 0.0078125 C11.02097656 0.00201172 11.02097656 0.00201172 13.2421875 -0.00390625 C27.29281243 0.00861659 41.14648003 0.67007405 55.03125 2.8828125 C56.13992432 3.0576416 57.24859863 3.2324707 58.39086914 3.41259766 C75.46869905 6.20116454 91.97294829 10.56313709 108.34375 16.1328125 C109.61863281 16.55949219 110.89351562 16.98617187 112.20703125 17.42578125 C137.69101805 26.44970596 161.98509673 39.59333948 183.34375 56.1328125 C184.60792228 57.0965518 185.8722465 58.06009181 187.13671875 59.0234375 C192.64229068 63.2510968 197.99884551 67.48581326 202.78125 72.53125 C204.51038216 74.30361047 206.33738284 75.89836169 208.21875 77.5078125 C238.30076306 103.64083543 238.30076306 103.64083543 224.34375 121.1328125 C206.05686882 133.84064519 195.03523391 118.23194141 183.47460938 104.9921875 C178.14548643 98.83312564 178.14548643 98.83312564 172.34375 93.1328125 C173.21662021 96.76660217 173.21662021 96.76660217 174.71875 99.76953125 C179.4749104 111.35025596 179.89685106 123.91385955 179.84375 136.2578125 C179.84231995 137.02017212 179.84088989 137.78253174 179.8394165 138.56799316 C179.7803597 151.33427198 178.49577199 163.04066878 174.34375 175.1328125 C173.89773438 176.47601563 173.45171875 177.81921875 172.9921875 179.203125 C167.72952654 193.52109086 155.47390264 222.83108454 136.34375 219.1328125 C127.46487844 213.10786394 127.54721907 206.22681683 132.90625 197.2578125 C136.07208719 191.69013464 138.79984729 186.09050991 141.15625 180.1328125 C141.69894531 178.7715625 142.24164062 177.4103125 142.80078125 176.0078125 C146.74802784 164.41269739 147.85851071 152.73374827 147.78979492 140.55419922 C147.78127929 138.26568522 147.81019905 135.97967672 147.84179688 133.69140625 C148.02322413 95.46322561 126.50816515 65.55443712 92.59375 49.1953125 C91.79952637 48.81020508 91.00530273 48.42509766 90.18701172 48.02832031 C87.98722152 46.96946463 87.98722152 46.96946463 85.34375 46.1328125 C86.91471159 47.96621708 88.55673462 49.51384329 90.34375 51.1328125 C150.30130282 108.26143754 134.20465706 188.23756054 83.34375 245.1328125 C82.62058594 245.96554687 81.89742187 246.79828125 81.15234375 247.65625 C72.20849353 257.83543865 62.68530347 267.59097976 52.04296875 275.99609375 C49.14641619 278.2890232 46.34310724 280.67447641 43.53125 283.0703125 C30.93540433 293.55341069 17.14015193 302.33712486 3.34375 311.1328125 C2.17714844 311.87660156 1.01054687 312.62039063 -0.19140625 313.38671875 C-9.14799031 318.99166074 -18.36719617 324.10520407 -27.65625 329.1328125 C-28.95199951 329.83712402 -28.95199951 329.83712402 -30.27392578 330.55566406 C-55.51660513 344.21146491 -81.77646525 355.13851043 -108.65625 365.1328125 C-110.03796387 365.64908203 -111.41967773 366.16535156 -112.84326172 366.69726562 C-132.81777655 374.13055692 -152.90473899 380.20850234 -173.65625 385.1328125 C-176.36079099 385.78989593 -179.06521708 386.44745245 -181.76953125 387.10546875 C-184.41880683 387.74151913 -187.06853266 388.37569762 -189.71875 389.0078125 C-190.91274414 389.29438721 -192.10673828 389.58096191 -193.33691406 389.8762207 C-204.77803978 392.54383653 -216.26364705 394.48121697 -228.03125 394.6328125 C-229.26681641 394.6946875 -229.26681641 394.6946875 -230.52734375 394.7578125 C-246.14911781 394.95586986 -252.79748741 379.93739576 -251.65625 366.1328125 C-248.45567512 355.93098006 -239.79425366 352.12975964 -229.96484375 351.05859375 C-228.94310562 350.92261276 -227.92136749 350.78663177 -226.8686676 350.64653015 C-223.61318875 350.21869356 -220.35451122 349.83059814 -217.09375 349.4453125 C-212.84126738 348.90885542 -208.59068395 348.35789307 -204.33984375 347.80859375 C-203.28933838 347.67528656 -202.23883301 347.54197937 -201.15649414 347.40463257 C-193.81356963 346.45954905 -186.51093347 345.35395908 -179.21484375 344.09765625 C-177.84724159 343.86530022 -177.84724159 343.86530022 -176.45201111 343.62825012 C-168.51894396 342.22390466 -160.77647159 340.22063971 -153.0859375 337.82421875 C-152.20647461 337.55109863 -151.32701172 337.27797852 -150.42089844 336.99658203 C-149.50856445 336.71153809 -148.59623047 336.42649414 -147.65625 336.1328125 C-146.68461914 335.83358887 -145.71298828 335.53436523 -144.71191406 335.22607422 C-120.81891649 327.84994376 -97.37905215 319.60427756 -74.65625 309.1328125 C-73.47256836 308.58882812 -72.28888672 308.04484375 -71.06933594 307.484375 C-40.19229595 293.18577145 -10.47579429 276.18471286 16.34375 255.1328125 C17.55611328 254.19115234 17.55611328 254.19115234 18.79296875 253.23046875 C21.33596935 251.22800934 23.84402174 249.18904058 26.34375 247.1328125 C27.36726563 246.29621094 28.39078125 245.45960938 29.4453125 244.59765625 C44.26324246 232.21531707 57.93657376 218.7493461 69.34375 203.1328125 C70.19195313 202.01777344 71.04015625 200.90273438 71.9140625 199.75390625 C91.74557337 173.09962788 103.85727978 136.66798992 91.34375 104.1328125 C91.03179688 103.30523437 90.71984375 102.47765625 90.3984375 101.625 C89.47505231 99.39801218 88.44641178 97.27623224 87.34375 95.1328125 C86.92480469 94.27429688 86.50585938 93.41578125 86.07421875 92.53125 C44.53828339 11.29016431 -60.94046877 38.47935798 -120.84375 80.0078125 C-152.28814738 103.05983349 -250.74078961 225.23053485 -215.65625 267.1328125 C-211.75992551 268.1154834 -207.63855881 267.43086472 -203.65625 267.1328125 C-202.33367187 267.060625 -201.01109375 266.9884375 -199.6484375 266.9140625 C-168.21182612 264.7595826 -137.10330292 255.93462537 -107.65625 245.1328125 C-106.3882959 244.67285889 -106.3882959 244.67285889 -105.09472656 244.20361328 C-81.80918674 235.72535614 -59.55359541 225.44223583 -38.50390625 212.32421875 C-37.46806396 211.6806543 -36.43222168 211.03708984 -35.36499023 210.37402344 C-33.34948481 209.11343498 -31.34204319 207.83983598 -29.34399414 206.55175781 C-28.4286792 205.97651367 -27.51336426 205.40126953 -26.5703125 204.80859375 C-25.7654541 204.29208252 -24.9605957 203.77557129 -24.13134766 203.2434082 C-18.30228049 200.62786011 -11.67353426 202.09824399 -8.65625 208.1328125 C-4.44264301 259.53881774 -195.55638476 308.9581157 -233.71875 309.5078125 C-234.80736328 309.53399658 -235.89597656 309.56018066 -237.01757812 309.5871582 C-245.32523128 309.60475916 -250.94599756 307.72690496 -256.46875 301.1953125 C-257.03207031 300.54691406 -257.59539062 299.89851563 -258.17578125 299.23046875 C-263.21104559 292.09607047 -262.00904408 283.67644131 -261.96875 275.3203125 C-261.96626251 274.50914978 -261.96377502 273.69798706 -261.96121216 272.86224365 C-261.7725011 233.09371678 -252.03867801 194.84781247 -234.65625 159.1328125 C-234.18590332 158.16085937 -233.71555664 157.18890625 -233.23095703 156.1875 C-221.92753451 133.06104148 -208.10585124 112.46790288 -190.75390625 93.44921875 C-188.95033387 91.45756433 -187.20518904 89.43259393 -185.46875 87.3828125 C-176.73131399 77.38848314 -167.14108028 68.26604513 -156.65625 60.1328125 C-155.73328125 59.38128906 -154.8103125 58.62976563 -153.859375 57.85546875 C-125.39585792 35.10677699 -91.0671881 17.70973319 -55.65625 9.1328125 C-54.48707031 8.79121094 -53.31789063 8.44960937 -52.11328125 8.09765625 C-35.65141633 3.29247259 -17.17071957 0.01512268 0 0 Z " transform="translate(503.65625,221.8671875)" style="fill: rgb(67, 99, 120); --darkreader-inline-fill: #8aa9be;" data-darkreader-inline-fill=""/><path d="M0 0 C1.7838126 -0.01748915 3.56757262 -0.0417563 5.35119629 -0.07305908 C7.88448281 -0.11525186 10.41666077 -0.13063401 12.95025635 -0.13967896 C14.41865967 -0.15426147 15.88706299 -0.16884399 17.39996338 -0.18386841 C34.50748672 1.74536313 41.65017191 17.5270379 37.56744385 33.03610229 C34.36207375 41.57864365 26.09000367 46.5635684 17.25201416 46.48141479 C15.96836975 46.47480835 14.68472534 46.4682019 13.36218262 46.46139526 C11.2749588 46.43650024 11.2749588 46.43650024 9.14556885 46.41110229 C6.93286639 46.39951956 4.72016379 46.38795004 2.50745773 46.3770752 C-2.16029331 46.35090509 -6.8279124 46.30722798 -11.49554443 46.26535034 C-35.97766822 46.04904033 -60.02419772 46.32763942 -84.18255615 50.72360229 C-85.59407959 50.98036743 -87.00560303 51.23713257 -88.4598999 51.50167847 C-135.94266012 60.375063 -182.0006626 75.44538199 -226.43255615 94.28610229 C-227.61881592 94.78448608 -228.80507568 95.28286987 -230.02728271 95.7963562 C-238.19047011 99.22942155 -246.32300338 102.7282679 -254.43255615 106.28610229 C-255.43818604 106.72696167 -256.44381592 107.16782104 -257.47991943 107.62203979 C-269.65282434 112.98616414 -281.50723961 118.77331752 -293.20941162 125.09664917 C-295.34689872 126.24027284 -297.49685608 127.35433541 -299.6552124 128.45797729 C-323.78380245 140.84795164 -350.7547414 155.72600479 -365.43255615 179.28610229 C-366.09513428 180.33282104 -366.7577124 181.37953979 -367.44036865 182.45797729 C-371.80103192 190.1200334 -373.22315678 196.47590506 -373.08270264 205.15744019 C-373.01929385 215.52304759 -379.72637926 219.39992587 -389.43255615 218.28610229 C-398.55383372 215.26176335 -405.4162195 208.58835025 -412.43255615 202.28610229 C-413.47025146 201.35926636 -414.50794678 200.43243042 -415.5770874 199.47750854 C-422.06355558 193.60721321 -428.29565728 187.51872403 -434.43255615 181.28610229 C-436.87893146 178.82046419 -439.33407094 176.3788874 -441.86224365 173.99703979 C-451.10055254 165.171946 -463.62324756 152.59586284 -452.43255615 140.28610229 C-445.92717364 135.502954 -439.84062515 133.88248816 -431.99505615 132.28610229 C-429.6427677 131.77117833 -427.29119948 131.25295296 -424.94036865 130.73141479 C-423.24509033 130.3587146 -423.24509033 130.3587146 -421.51556396 129.97848511 C-393.63311409 123.71663621 -366.44280265 111.88153544 -340.43255615 100.28610229 C-339.54922607 99.89358276 -338.665896 99.50106323 -337.75579834 99.09664917 C-332.87351682 96.92291252 -328.00381248 94.72217273 -323.13763428 92.51266479 C-256.22829054 62.17398764 -256.22829054 62.17398764 -223.43255615 49.28610229 C-222.18683838 48.79368042 -220.94112061 48.30125854 -219.65765381 47.79391479 C-148.30611842 19.69023595 -77.14156188 0.64535074 0 0 Z " transform="translate(756.4325561523438,520.7138977050781)" style="fill: rgb(50, 78, 96); --darkreader-inline-fill: #9ab8cb;" data-darkreader-inline-fill=""/><path d="M0 0 C0.49275041 5.82972322 -0.74941785 9.34391259 -3.4375 14.5 C-3.79875977 15.19359619 -4.16001953 15.88719238 -4.53222656 16.60180664 C-13.37944072 33.36625049 -23.91592478 48.88907657 -35.8125 63.625 C-36.3271582 64.2636499 -36.84181641 64.9022998 -37.37207031 65.56030273 C-40.51046018 69.38162959 -43.82377517 72.9205398 -47.375 76.36181641 C-49.08273787 78.08340912 -50.63597427 79.88730899 -52.1875 81.75 C-78.22966722 111.70136671 -115.49094788 130.44024054 -152 144 C-153.13614746 144.43151367 -154.27229492 144.86302734 -155.44287109 145.30761719 C-163.84202805 148.42558441 -172.25380083 150.70449587 -181 152.625 C-182.34489502 152.92422363 -183.68979004 153.22344727 -185.07543945 153.53173828 C-219.04810129 160.90680973 -252.56897496 161.58154769 -287 157 C-287.95390625 156.8772168 -288.9078125 156.75443359 -289.890625 156.62792969 C-311.13622079 153.84174787 -338.88130756 145.85684704 -332.37890625 118.375 C-326.02767485 98.50270264 -307.27360767 84.69220404 -291 73 C-289.82050781 72.14792969 -288.64101563 71.29585937 -287.42578125 70.41796875 C-269.69948574 58.13064857 -250.14967691 48.85996728 -230.49658203 40.11914062 C-227.39303872 38.727918 -224.32194261 37.27196699 -221.25 35.8125 C-203.32418448 27.57694863 -184.67003111 21.3030949 -166 15 C-164.21212312 14.3909668 -162.42434932 13.7816308 -160.63671875 13.171875 C-117.87870608 -1.34604411 -117.87870608 -1.34604411 -114.55078125 17.55078125 C-113.06893013 41.3591893 -152.73262472 50.45809803 -169.98803711 57.49023438 C-193.1313717 66.93512193 -215.44068794 77.67169467 -236 92 C-236.70511719 92.48984375 -237.41023437 92.9796875 -238.13671875 93.484375 C-253.94490313 104.0310714 -253.94490313 104.0310714 -258 120 C-255.51167205 120.88904502 -255.51167205 120.88904502 -252.40234375 120.69140625 C-250.62923828 120.68620972 -250.62923828 120.68620972 -248.8203125 120.6809082 C-247.53898438 120.6418335 -246.25765625 120.60275879 -244.9375 120.5625 C-243.62652344 120.53953857 -242.31554687 120.51657715 -240.96484375 120.49291992 C-185.76296035 119.09214539 -131.58227067 98.33616746 -90 62 C-89.22527344 61.33742188 -88.45054687 60.67484375 -87.65234375 59.9921875 C-80.50497717 53.85013453 -74.06952811 47.20339599 -68 40 C-67.30729004 39.18595703 -67.30729004 39.18595703 -66.60058594 38.35546875 C-58.17015161 28.40723671 -50.86453373 18.07679643 -44 7 C-34.05421622 -8.86726198 -7.98356282 -31.93425128 0 0 Z " transform="translate(763,623)" style="fill: rgb(44, 70, 88); --darkreader-inline-fill: #9fbccf;" data-darkreader-inline-fill=""/><path d="M0 0 C3.32953685 9.43897273 5.1435664 18.49524204 5.25 28.5 C5.28867187 30.68109375 5.28867187 30.68109375 5.328125 32.90625 C4.21023295 46.85328418 -7.37198516 49.91069454 -19.46728516 50.23852539 C-60.10841883 51.45559037 -101.58029394 66.78075702 -135.0703125 89.56640625 C-142.15343271 93.03241307 -147.50020783 90.99958433 -151 84 C-151.76294162 72.36514032 -145.57994536 68.6070717 -137 62 C-135.89269531 61.14019531 -134.78539062 60.28039062 -133.64453125 59.39453125 C-109.44204723 41.10410439 -81.94843337 27.97227423 -54.29101562 15.80859375 C-51.68657956 14.65907572 -49.09291974 13.48771733 -46.5 12.3125 C-45.34322754 11.81423706 -45.34322754 11.81423706 -44.16308594 11.3059082 C-38.74480245 8.82403536 -35.50699984 5.78545588 -32 1 C-31.27554688 0.01515625 -30.55109375 -0.9696875 -29.8046875 -1.984375 C-28.51163512 -3.83757557 -27.21998181 -5.69175306 -25.9296875 -7.546875 C-16.59851078 -19.40918063 -5.33426337 -10.65350064 0 0 Z " transform="translate(787,422)" style="fill: rgb(59, 91, 111); --darkreader-inline-fill: #90b0c4;" data-darkreader-inline-fill=""/><path d="M0 0 C0.31196979 27.359751 -18.78808196 42.31141916 -45.3359375 39.73828125 C-66.89269446 32.9487515 -77.74393183 9.06378054 -67.9375 -11.5078125 C-51.43494208 -39.8841621 -3.68108366 -35.7407541 0 0 Z " transform="translate(517.3359375,347.26171875)" style="fill: rgb(71, 107, 129); --darkreader-inline-fill: #84a6bb;" data-darkreader-inline-fill=""/><path d="M0 0 C0.97915512 19.93054459 -13.40775624 31.0989125 -32.37890625 29.58984375 C-48.64083377 24.25806424 -58.80402322 7.04293413 -50.37890625 -9.41015625 C-36.66668542 -30.01744266 -4.08007942 -25.95267011 0 0 Z " transform="translate(410.37890625,404.41015625)" style="fill: rgb(65, 96, 117); --darkreader-inline-fill: #8cabbf;" data-darkreader-inline-fill=""/><path d="M0 0 C2.74085811 17.54714315 -12.19632854 22.71109327 -26 28 C-26.78375 28.32226562 -27.5675 28.64453125 -28.375 28.9765625 C-37.11043427 32.31474631 -48.0611068 33.87778639 -53 24 C-54.66610087 10.25466781 -43.16839929 4.29033914 -33 -3 C-32.39607422 -3.43618652 -31.79214844 -3.87237305 -31.16992188 -4.32177734 C-29.35976758 -5.6141277 -27.52373233 -6.86997855 -25.6875 -8.125 C-24.59824219 -8.87007813 -23.50898437 -9.61515625 -22.38671875 -10.3828125 C-12.24165505 -15.22716818 -3.99480526 -9.74732483 0 0 Z " transform="translate(765,368)" style="fill: rgb(64, 97, 118); --darkreader-inline-fill: #8bacc0;" data-darkreader-inline-fill=""/></svg>